<svg xmlns="http://www.w3.org/2000/svg" viewBox="0 0 200 200">
  <!-- 픽셀: 인사 포즈 (LED 웃는 얼굴 + 한 팔 흔들기) -->
  <defs>
    <g id="led"><rect width="9" height="9" rx="2"/></g>
  </defs>
  <g stroke="#4A5568" stroke-width="3.5" stroke-linecap="round" stroke-linejoin="round">
    <!-- 추진 불꽃 -->
    <path d="M92 172 Q100 190 108 172 Q104 178 100 176 Q96 178 92 172 Z" fill="#FFB74D" stroke="#F57C00" stroke-width="2.5"/>
    <!-- 몸통 -->
    <rect x="66" y="118" width="68" height="52" rx="16" fill="#EAF6F2"/>
    <rect x="84" y="130" width="32" height="20" rx="5" fill="#7C4DFF" stroke="#5E35B1"/>
    <circle cx="100" cy="140" r="5" fill="#B39DDB" stroke="none"/>
    <!-- 팔: 왼쪽 내림 / 오른쪽 번쩍 -->
    <path d="M66 134 Q48 142 46 158" fill="none" stroke="#4A5568" stroke-width="13"/>
    <path d="M66 134 Q48 142 46 158" fill="none" stroke="#CFE7DF" stroke-width="7"/>
    <path d="M134 130 Q154 112 152 94" fill="none" stroke="#4A5568" stroke-width="13"/>
    <path d="M134 130 Q154 112 152 94" fill="none" stroke="#CFE7DF" stroke-width="7"/>
    <circle cx="46" cy="160" r="8" fill="#7C4DFF" stroke="#5E35B1"/>
    <circle cx="152" cy="92" r="8" fill="#7C4DFF" stroke="#5E35B1"/>
    <!-- 안테나 -->
    <line x1="100" y1="30" x2="100" y2="18"/>
    <circle cx="100" cy="14" r="6" fill="#FF6B6B" stroke="#C62828"/>
    <!-- 머리 -->
    <rect x="52" y="30" width="96" height="80" rx="20" fill="#F4FBF8"/>
    <!-- LED 얼굴 화면 -->
    <rect x="64" y="42" width="72" height="56" rx="10" fill="#1E1E32" stroke="#37374F"/>
  </g>
  <!-- LED 5x5: 웃는 눈(^ ^) + 스마일 (좌상단 70,47 / 간격 12) -->
  <g fill="#69F0AE">
    <use href="#led" x="82" y="52"/><use href="#led" x="106" y="52"/>
    <use href="#led" x="70" y="64"/><use href="#led" x="118" y="64"/>
    <use href="#led" x="82" y="76"/><use href="#led" x="94" y="76"/><use href="#led" x="106" y="76"/>
  </g>
  <!-- 반짝이 -->
  <path d="M168 52 l3 7 7 3 -7 3 -3 7 -3 -7 -7 -3 7 -3 z" fill="#7C4DFF"/>
  <path d="M28 70 l2 5 5 2 -5 2 -2 5 -2 -5 -5 -2 5 -2 z" fill="#FFD166"/>
</svg>
