<svg xmlns="http://www.w3.org/2000/svg" viewBox="0 0 200 200">
  <!-- 토토: 생각 포즈 (턱에 손, 머리 위 물음표) -->
  <g stroke="#1E6B43" stroke-width="3.5" stroke-linecap="round" stroke-linejoin="round">
    <ellipse cx="100" cy="128" rx="58" ry="50" fill="#2E9E5B"/>
    <path d="M70 100 L100 92 L130 100 M62 128 L100 118 L138 128 M74 156 L100 148 L126 156 M100 92 L100 148" fill="none" stroke="#1E6B43" stroke-width="2.5" opacity=".55"/>
    <rect x="34" y="108" width="24" height="40" rx="10" fill="#FF9800" stroke="#C66900"/>
    <rect x="142" y="108" width="24" height="40" rx="10" fill="#FF9800" stroke="#C66900"/>
    <ellipse cx="100" cy="134" rx="36" ry="34" fill="#FFF3C4" stroke="#D9B75A"/>
    <path d="M84 122 H116 M80 136 H120 M86 150 H114" stroke="#E4CC85" stroke-width="2.5"/>
    <!-- 왼팔 내림 / 오른팔 턱으로 -->
    <path d="M52 138 Q38 150 40 164" fill="none" stroke="#1E6B43" stroke-width="14"/>
    <path d="M52 138 Q38 150 40 164" fill="none" stroke="#6FCF8E" stroke-width="8"/>
    <path d="M148 130 Q140 100 118 84" fill="none" stroke="#1E6B43" stroke-width="14"/>
    <path d="M148 130 Q140 100 118 84" fill="none" stroke="#6FCF8E" stroke-width="8"/>
    <ellipse cx="78" cy="180" rx="14" ry="9" fill="#6FCF8E"/>
    <ellipse cx="122" cy="180" rx="14" ry="9" fill="#6FCF8E"/>
    <!-- 머리 (살짝 기울임) -->
    <g transform="rotate(-6 100 58)">
      <circle cx="100" cy="58" r="34" fill="#7ED97E"/>
      <path d="M68 42 Q100 30 132 42" fill="none" stroke="#FF9800" stroke-width="7"/>
      <circle cx="84" cy="36" r="10" fill="#BBDEFB" stroke="#E65100" stroke-width="3"/>
      <circle cx="116" cy="36" r="10" fill="#BBDEFB" stroke="#E65100" stroke-width="3"/>
    </g>
  </g>
  <!-- 얼굴: 위를 보며 고민 (눈동자 위로) -->
  <g transform="rotate(-6 100 58)">
    <ellipse cx="88" cy="60" rx="8.5" ry="10" fill="#fff"/>
    <ellipse cx="112" cy="60" rx="8.5" ry="10" fill="#fff"/>
    <circle cx="90" cy="57" r="4.6" fill="#243B2F"/>
    <circle cx="111" cy="57" r="4.6" fill="#243B2F"/>
    <circle cx="91.5" cy="55.5" r="1.7" fill="#fff"/>
    <circle cx="112.5" cy="55.5" r="1.7" fill="#fff"/>
    <circle cx="78" cy="72" r="5" fill="#FFB3B3" opacity=".8"/>
    <circle cx="122" cy="72" r="5" fill="#FFB3B3" opacity=".8"/>
    <path d="M94 78 Q100 76 106 79" fill="none" stroke="#1E6B43" stroke-width="3.5" stroke-linecap="round"/>
  </g>
  <!-- 물음표 + 톱니 -->
  <text x="150" y="38" font-size="30" font-weight="bold" fill="#7C4DFF" font-family="sans-serif">?</text>
  <g fill="#FFD166" stroke="#D9A520" stroke-width="2">
    <circle cx="38" cy="46" r="9"/>
    <g stroke-width="4" stroke="#FFD166">
      <path d="M38 33 V29 M38 63 V59 M25 46 H29 M51 46 H47 M29 37 l-3 -3 M50 58 l-3 -3 M29 55 l-3 3 M50 34 l-3 3"/>
    </g>
    <circle cx="38" cy="46" r="3.5" fill="#fff" stroke="none"/>
  </g>
</svg>
